Coordinates
version=1
nRows=16
nColumns=40
inDegrees=yes

Units are S.I. units (second, meters, Newtons, ...)
Angles are in degrees.

endheader
time	pelvis_tilt	pelvis_list	pelvis_rotation	pelvis_tx	pelvis_ty	pelvis_tz	hip_flexion_r	hip_adduction_r	hip_rotation_r	knee_angle_r	knee_angle_r_beta	ankle_angle_r	subtalar_angle_r	mtp_angle_r	hip_flexion_l	hip_adduction_l	hip_rotation_l	knee_angle_l	knee_angle_l_beta	ankle_angle_l	subtalar_angle_l	mtp_angle_l	lumbar_extension	lumbar_bending	lumbar_rotation	arm_flex_r	arm_add_r	arm_rot_r	elbow_flex_r	pro_sup_r	wrist_flex_r	wrist_dev_r	arm_flex_l	arm_add_l	arm_rot_l	elbow_flex_l	pro_sup_l	wrist_flex_l	wrist_dev_l
      1.62000000	     -2.01429580	     -1.86806785	      6.35920232	      0.54723809	      0.88404473	     -1.01466653	     24.84371059	      0.72973621	    -15.57533313	    -26.50808022	     -0.46265328	      1.78880376	     -8.31230122	      5.52087307	      1.84214443	      6.14798880	      3.25965203	    -48.78432835	     -0.85144715	    -15.73850056	     11.22043824	     -4.36504044	     -1.35839325	      1.71899208	     -9.00551560	     -6.68255497	     -7.79752159	    -17.44490671	     18.54254285	     89.95437384	      0.00000000	      0.00000000	      2.84421635	     12.00307958	     23.89810968	     48.51512184	     89.95437384	      0.00000000	      0.00000000
      1.63000000	     -1.87063074	     -1.99716926	      6.11251436	      0.55770386	      0.88509079	     -1.01290376	     24.01577337	      1.16031291	    -15.38029221	    -26.61617914	     -0.46453996	      2.40599912	     -8.08641082	      5.37863178	      3.00187455	      6.42869146	      2.92218154	    -51.12212953	     -0.89224948	    -17.84883590	     11.22599315	     -3.96490925	     -1.49271637	      1.90728725	     -8.68086608	     -6.42217461	     -7.88135898	    -17.32117949	     18.67615422	     89.95437384	      0.00000000	      0.00000000	      2.35267945	     11.74382198	     23.93378206	     48.02569225	     89.95437384	      0.00000000	      0.00000000
      1.64000000	     -1.89750736	     -2.24552623	      5.93294463	      0.56786826	      0.88578676	     -1.01111196	     23.30695901	      1.66727777	    -15.45983104	    -26.55518066	     -0.46347534	      3.07001554	     -7.75856235	      5.25428238	      4.52504179	      6.83356765	      2.61687197	    -53.57963883	     -0.93514111	    -19.23335778	     11.50624139	     -3.51197317	     -1.45571351	      2.19067420	     -8.36060749	     -6.19717078	     -7.97086245	    -17.25355372	     18.85076815	     89.95437384	      0.00000000	      0.00000000	      1.84382055	     11.45497824	     23.90178246	     47.58750287	     89.95437384	      0.00000000	      0.00000000
      1.65000000	     -1.64586889	     -1.97427208	      5.59935880	      0.57770647	      0.88698496	     -1.00947876	     22.33925364	      1.61902549	    -15.42567959	    -26.64382565	     -0.46502248	      3.36186502	     -7.49073230	      5.11542945	      5.58949068	      6.67163086	      2.64726111	    -55.72538735	     -0.97259149	    -19.44363868	     11.62315568	     -3.34275653	     -1.87842104	      1.92051553	     -7.81443441	     -5.90980136	     -8.00940144	    -17.10703813	     19.13380939	     89.95437384	      0.00000000	      0.00000000	      1.47806237	     11.21199777	     23.85892136	     47.19589945	     89.95437384	      0.00000000	      0.00000000
      1.66000000	     -1.87052164	     -2.65591484	      5.73498314	      0.58726609	      0.88723033	     -1.00794158	     21.72771865	      2.53236393	    -15.69188204	    -26.20114278	     -0.45729621	      4.22844196	     -6.96765205	      4.96819825	      7.73201670	      7.60622249	      2.41034276	    -58.39807126	     -1.01923862	    -18.78239052	     14.11725558	     -2.68301881	     -1.59651225	      2.65311966	     -7.84473075	     -5.63900665	     -8.15065495	    -17.12345997	     19.51269243	     89.95437384	      0.00000000	      0.00000000	      1.02759331	     10.93426373	     23.72493489	     46.50294942	     89.95437384	      0.00000000	      0.00000000
      1.67000000	     -1.79970938	     -2.82531518	      5.69638123	      0.59686037	      0.88808862	     -1.00643914	     20.82077444	      2.92822729	    -15.88369544	    -25.98100945	     -0.45345416	      4.79450879	     -6.63999426	      4.85998284	      9.29224346	      8.00096148	      2.44345628	    -60.56901927	     -1.05712881	    -17.90618456	     15.85959539	     -2.17237838	     -1.74484757	      2.82715306	     -7.60495165	     -5.30856853	     -8.23526078	    -16.99611028	     19.80826804	     89.95437384	      0.00000000	      0.00000000	      0.69039880	     10.68333573	     23.59570383	     45.84700896	     89.95437384	      0.00000000	      0.00000000
      1.68000000	     -1.69879499	     -2.94800293	      5.62650832	      0.60648329	      0.88903379	     -1.00488012	     19.83280250	      3.29312659	    -16.01939506	    -25.63274546	     -0.44737580	      5.31718782	     -6.31727799	      4.75215956	     10.81230289	      8.35368196	      2.54173053	    -62.51602892	     -1.09111054	    -16.81289520	     17.40715303	     -1.55629277	     -1.93248079	      2.94510381	     -7.32876853	     -5.02075489	     -8.31251816	    -16.85135094	     20.24108533	     89.95437384	      0.00000000	      0.00000000	      0.32221814	     10.42903645	     23.49087379	     45.19546638	     89.95437384	      0.00000000	      0.00000000
      1.69000000	     -1.57733197	     -3.02193978	      5.54553151	      0.61604071	      0.89005944	     -1.00326856	     18.82829547	      3.61671208	    -16.13658205	    -25.30878417	     -0.44172161	      5.84811373	     -5.97121069	      4.62031170	     12.28860486	      8.65253880	      2.64343923	    -64.24021622	     -1.12120329	    -15.64427322	     18.28857824	     -0.75732384	     -2.15409212	      2.99155631	     -7.02827290	     -4.71594296	     -8.37670225	    -16.73042892	     20.71088270	     89.95437384	      0.00000000	      0.00000000	     -0.03041103	     10.24997731	     23.25750571	     44.49246795	     89.95437384	      0.00000000	      0.00000000
      1.70000000	     -1.62286827	     -3.12172042	      5.44587630	      0.62535767	      0.89083837	     -1.00179528	     18.01280513	      3.97216654	    -16.11235869	    -24.90961685	     -0.43475483	      6.11251269	     -6.12077018	      4.73941283	     14.13888882	      8.82718435	      2.73225441	    -66.18750775	     -1.15518993	    -12.19811690	     18.31530838	     19.44794709	     -2.20324928	      3.07213172	     -6.72783825	     -4.46956071	     -8.54962706	    -16.31236623	     21.31666898	     89.95437384	      0.00000000	      0.00000000	     -0.40166255	     10.04186320	     23.05785787	     43.78199476	     89.95437384	      0.00000000	      0.00000000
      1.71000000	     -1.42687739	     -3.08186468	      5.30146170	      0.63500887	      0.89201345	     -1.00036565	     16.79942913	      4.20072752	    -15.98524622	    -24.37904136	     -0.42549454	      6.77366575	     -5.56359072	      4.55220556	     15.38807043	      8.91255146	      2.81813996	    -67.35232892	     -1.17551990	    -11.10255224	     18.71590846	     19.50006123	     -2.49535384	      3.02326657	     -6.35868847	     -4.11635868	     -8.62757087	    -16.30446358	     21.72672444	     89.95437384	      0.00000000	      0.00000000	     -0.69819361	      9.86336348	     22.79562103	     42.91047027	     89.95437384	      0.00000000	      0.00000000
      1.72000000	     -1.27615649	     -2.81004152	      4.99231249	      0.64445947	      0.89316679	     -0.99891027	     15.80122791	      4.08259154	    -16.11113232	    -24.19813964	     -0.42233721	      6.98816584	     -5.42459846	      4.46222121	     16.60313786	      8.76990716	      3.15438576	    -68.21592626	     -1.19059252	    -10.61382785	     18.90742374	     19.30925410	     -2.80638535	      2.71611286	     -5.93899639	     -3.63822014	     -8.71510232	    -16.24011620	     22.12392453	     89.95437384	      0.00000000	      0.00000000	     -1.16931738	      9.71427916	     22.64504772	     42.33557645	     89.95437384	      0.00000000	      0.00000000
      1.73000000	     -1.01746687	     -3.22308541	      4.86671594	      0.65433709	      0.89433350	     -0.99735298	     14.33595641	      4.89258505	    -15.90080209	    -23.18792734	     -0.40470568	      7.51555968	     -4.56821146	      4.14986431	     17.75033508	      9.28480236	      2.99736264	    -69.04686752	     -1.20509518	     -7.92940702	     18.98037497	     22.05732107	     -3.05536830	      3.17890170	     -5.49427628	     -3.52121472	     -8.92326151	    -16.15682597	     22.94189243	     89.95437384	      0.00000000	      0.00000000	     -1.40592936	      9.58991328	     21.98033141	     41.28356443	     89.95437384	      0.00000000	      0.00000000
      1.74000000	     -1.05874473	     -3.04088892	      4.57872798	      0.66366920	      0.89513004	     -0.99618738	     13.51744328	      4.88413411	    -15.72385498	    -22.91288560	     -0.39990529	      8.00058270	     -4.33982996	      3.97411890	     19.04913030	      9.03412657	      3.13277042	    -69.48284813	     -1.21270447	     -5.86940319	     19.03052843	     21.77810838	     -3.07936960	      2.97205201	     -5.11194082	     -3.09061861	     -9.09035054	    -16.04168013	     23.37131158	     89.95437384	      0.00000000	      0.00000000	     -1.79980194	      9.40916459	     21.70457374	     40.44763208	     89.95437384	      0.00000000	      0.00000000
      1.75000000	     -1.08486486	     -2.90261195	      4.26263174	      0.67289069	      0.89582687	     -0.99497610	     12.70759873	      4.91589337	    -15.53250787	    -22.63150250	     -0.39499423	      8.39434821	     -3.99427516	      3.78216641	     20.30487145	      8.90293799	      3.38265791	    -69.68694219	     -1.21626659	     -3.66262927	     18.99699898	     21.50047241	     -3.12059194	      2.81857337	     -4.69768647	     -2.72327761	     -9.24100864	    -15.95448482	     23.95456076	     89.95437384	      0.00000000	      0.00000000	     -2.19516657	      9.24959389	     21.43570384	     39.67858250	     89.95437384	      0.00000000	      0.00000000
      1.76000000	     -1.16219365	     -2.77394259	      3.94207429	      0.68220984	      0.89641599	     -0.99387849	     11.93787352	      4.92917166	    -15.34398355	    -22.31097631	     -0.38940000	      8.75303486	     -3.57854979	      3.58681502	     21.53488616	      8.73650414	      3.64096508	    -69.59368766	     -1.21463899	     -1.51862564	     18.94507161	     21.22391794	     -3.09060613	      2.67759681	     -4.28134428	     -2.39587673	     -9.41645281	    -15.85758297	     24.60019835	     89.95437384	      0.00000000	      0.00000000	     -2.61473807	      9.07722778	     21.18200152	     38.91876409	     89.95437384	      0.00000000	      0.00000000
      1.77000000	     -1.17870683	     -2.64432645	      3.60278292	      0.69146249	      0.89695915	     -0.99267370	     11.15780413	      4.96314693	    -15.07341341	    -22.11041759	     -0.38589959	      9.13551488	     -3.05866223	      3.32483344	     22.64690033	      8.62886973	      4.00282519	    -69.25694668	     -1.20876175	      0.35802607	     18.88388775	     21.08731106	     -3.13001080	      2.53015550	     -3.85843618	     -2.14717083	     -9.57031007	    -15.75924780	     25.43901115	     89.95437384	      0.00000000	      0.00000000	     -2.99392390	      8.92514449	     20.90892666	     38.08382873	     89.95437384	      0.00000000	      0.00000000
